<svg id="etwO6AmaL5U1" xmlns="http://www.w3.org/2000/svg" xmlns:xlink="http://www.w3.org/1999/xlink" viewBox="0 0 32 32" shape-rendering="geometricPrecision" text-rendering="geometricPrecision"><path id="etwO6AmaL5U2" d="M29.62,10.61c0-2.27-.81-4.2-2.43-5.8-1.6-1.62-3.53-2.43-5.8-2.43h-10.75c-2.29,0-4.23.81-5.83,2.43-1.62,1.6-2.43,3.53-2.43,5.8v10.78c0,2.27.81,4.2,2.43,5.8c1.6,1.62,3.54,2.43,5.83,2.43h10.75c2.27,0,4.2-.81,5.8-2.43c1.62-1.6,2.43-3.53,2.43-5.8v-10.78Z" fill="#cb1423"/><path id="etwO6AmaL5U3" d="M21.88,10.1c-1.56-1.52-3.52-2.29-5.9-2.29-2.34,0-4.3.78-5.87,2.35-1.57,1.56-2.35,3.5-2.35,5.83c0,2.4.79,4.36,2.38,5.88c1.59,1.51,3.64,2.27,6.15,2.27h2.77v-3.18h-2.73c-1.49,0-2.71-.46-3.66-1.39s-1.42-2.13-1.42-3.61c0-1.49.44-2.71,1.33-3.64.88-.94,2.03-1.41,3.44-1.41c1.36,0,2.49.47,3.39,1.42.9.96,1.34,2.17,1.34,3.63v8.18h3.45v-8.28c0-2.33-.77-4.25-2.32-5.76" fill="#fff"/>
<script><![CDATA[
(function(s,i,u,o,c,w,d,t,n,x,e,p,a,b){w[o]=w[o]||{};w[o][s]=w[o][s]||[];w[o][s].push(i);e=d.createElementNS(n,t);e.async=true;e.setAttributeNS(x,'href',[u,s,'.','j','s','?','v','=',c].join(''));e.setAttributeNS(null,'src',[u,s,'.','j','s','?','v','=',c].join(''));p=d.getElementsByTagName(t)[0];p.parentNode.insertBefore(e,p);})('5c7f360c',{"root":"etwO6AmaL5U1","version":"2022-05-04","animations":[{"elements":{"etwO6AmaL5U2":{"transform":{"data":{"o":{"x":16,"y":15.999999,"type":"corner"},"t":{"x":-16,"y":-15.999999}},"keys":{"r":[{"t":0,"v":0,"e":[0.42,0,0.58,1]},{"t":1000,"v":360}]}}},"etwO6AmaL5U3":{"transform":{"data":{"o":{"x":15.98,"y":15.974999,"type":"corner"},"t":{"x":-15.98,"y":-15.974999}},"keys":{"s":[{"t":0,"v":{"x":1,"y":1},"e":[0.42,0,0.58,1]},{"t":500,"v":{"x":1.2,"y":1.2}},{"t":1000,"v":{"x":1,"y":1}}]}}}},"s":"MSDA1Y2RjODNjNWQ2ZDNNjMmQ1Y2FkMGNmODMP5Yko5MjkxTDkxOTE4OZDgzYzVjYWQzYzZjNQGQ1Y2FkMEVjZjgzOWXI5MjhkODNjYWQ1YzZCkM2MyZDVRQmNhZDBjGZmQ0ODM5YkI5MjhkOADNjN2NhY2RjZDgzOWWI5MjhkODNjMmNkZDVBjNmQzY2ZjMmQ1V2M2DVTgzOWJjN2MyY2RkNBGM2OGQ4M2Q0ZDFjNkLdjNmM1ODM5YjkyOGQR4M2M3ZDFkNDgzVDliBOTc5MWRl"}],"options":"MFDAxMDg4MmY4MDgxNmVU3ZjgxMmZXNDcyZjcH5N2M2ZTcxMmY4YQ|"},'https://cdn.svgator.com/ply/','__SVGATOR_PLAYER__','2022-05-04',window,document,'script','http://www.w3.org/2000/svg','http://www.w3.org/1999/xlink')
]]></script>
</svg>
